<?xml version="1.0" encoding="UTF-8" standalone="no"?>
<!-- Created with Inkscape (http://www.inkscape.org/) -->

<svg
   width="1024"
   height="500"
   viewBox="0 0 270.93333 132.29167"
   version="1.1"
   id="svg1"
   xml:space="preserve"
   xmlns="http://www.w3.org/2000/svg"
   xmlns:svg="http://www.w3.org/2000/svg"><defs
     id="defs1"><style
       id="style1">.a { stroke-linecap:round;stroke-linejoin:round; }&#10;</style></defs><g
     id="layer1"><g
       id="g1"
       transform="matrix(2.7231588,0,0,2.7231588,41.50797,-3.7216696)"
       style="stroke-width:0.0971605"><path
         class="a"
         d="m 38.422896,42.004754 -3.919324,3.919401 -5.936164,-5.936165 h -8.39504 v -8.39504 0 l -5.936173,-5.936164 5.936173,-5.936164 v -8.39504 h 8.39504 l 5.936164,-5.936165 5.936164,5.936165 h 8.39504 v 8.39504 l 5.936166,5.936164 -2.977326,2.977324"
         fill="#e5c600"
         stroke="#e5c600"
         id="path1"
         style="stroke-width:0.0971605" /><path
         class="a"
         d="m 40.255192,36.65617 a 7.6521769,7.6521769 0 1 1 6.640197,3.849144 l -11.92015,-0.161406 a 4.5912861,4.5912861 0 0 1 0,-9.182564 l 4.461559,-0.0135"
         fill="#dbdbdbff"
         stroke="#dbdbdbff"
         id="path2"
         style="stroke-width:0.0971605" /><path
         class="a "
         d="m 30.605484,19.645431 h 6.155948 a 6.1877343,6.1877343 0 0 1 -6.036313,6.335682 q -0.05949,0.0015 -0.119435,0.0017 a 6.3378624,6.3378624 0 0 1 0,-12.674729 6.2413088,6.2413088 0 0 1 3.142009,0.83354"
         fill="none"
         stroke="#ffffff"
         id="path3"
         style="stroke-width:0.777285;stroke-dasharray:none" /></g></g></svg>
