<?xml version="1.0" encoding="UTF-8" standalone="no"?>
<svg
   version="1.1"
   viewBox="0 0 48 48"
   id="svg3"
   xmlns="http://www.w3.org/2000/svg"
   xmlns:svg="http://www.w3.org/2000/svg">
  <defs
     id="defs1">
    <style
       id="style1">.a{stroke-linecap:round;stroke-linejoin:round;}</style>
  </defs>
  <path
     id="path10"
     style="fill:#010101;fill-opacity:1"
     class="a"
     d="M 24 3.5 L 17.996094 9.5039062 L 9.5039062 9.5039062 L 9.5039062 17.996094 L 3.5 24 L 9.5039062 30.003906 L 9.5039062 38.496094 L 17.996094 38.496094 L 24 44.5 L 27.470703 41.029297 L 24.476562 40.988281 C 22.806133 40.988281 21.489351 40.343489 20.625 39.371094 C 19.760649 38.398699 19.339844 37.121746 19.339844 35.851562 C 19.339844 34.58138 19.760649 33.304426 20.625 32.332031 C 21.488986 31.360046 22.805183 30.715387 24.474609 30.714844 L 28.662109 30.701172 C 29.061975 29.341653 29.721618 28.075595 30.710938 27.091797 C 31.921889 25.887604 33.502124 25.043035 35.230469 24.761719 C 36.958812 24.480401 38.835339 24.761292 40.638672 25.806641 C 41.079701 26.062294 41.482595 26.345965 41.849609 26.650391 L 44.5 24 L 38.496094 17.996094 L 38.496094 9.5039062 L 30.003906 9.5039062 L 24 3.5 z M 20.058594 12.6875 A 0.50005 0.50005 0 0 1 20.0625 12.6875 C 21.26418 12.682525 22.445146 12.995725 23.486328 13.595703 A 0.5 0.5 0 0 1 23.669922 14.279297 A 0.5 0.5 0 0 1 22.986328 14.462891 C 22.098153 13.951086 21.091482 13.6833 20.066406 13.6875 C 16.833113 13.730046 14.244141 16.351866 14.244141 19.585938 C 14.244141 22.821338 16.835164 25.445888 20.070312 25.486328 C 20.104475 25.486128 20.138125 25.485219 20.171875 25.484375 C 23.179305 25.411642 25.506735 23.031343 25.693359 20.085938 L 20.064453 20.085938 A 0.5 0.5 0 0 1 19.564453 19.585938 A 0.5 0.5 0 0 1 20.064453 19.085938 L 26.279297 19.085938 A 0.50005 0.50005 0 0 1 26.779297 19.574219 C 26.869358 23.294299 23.917348 26.394405 20.197266 26.484375 C 20.153616 26.485513 20.110386 26.486183 20.066406 26.486328 A 0.50005 0.50005 0 0 1 20.058594 26.486328 C 16.287468 26.439186 13.244141 23.357357 13.244141 19.585938 C 13.244141 15.814518 16.287468 12.73464 20.058594 12.6875 z M 36.525391 25.646484 C 36.13384 25.643498 35.748444 25.67396 35.371094 25.736328 C 33.861693 25.985799 32.486903 26.73587 31.416016 27.800781 C 29.27424 29.930603 28.388448 33.278905 30.242188 36.515625 A 0.5 0.5 0 0 1 30.056641 37.197266 A 0.5 0.5 0 0 1 29.375 37.011719 C 28.359023 35.237715 28.09434 33.401717 28.357422 31.703125 L 24.478516 31.714844 A 0.50005 0.50005 0 0 0 24.476562 31.714844 C 23.056133 31.714844 22.054125 32.22988 21.373047 32.996094 C 20.691969 33.762307 20.339844 34.803602 20.339844 35.851562 C 20.339844 36.899524 20.691969 37.940818 21.373047 38.707031 C 22.054125 39.473245 23.056133 39.988281 24.476562 39.988281 A 0.50005 0.50005 0 0 1 24.482422 39.988281 L 28.458984 40.041016 L 41.138672 27.361328 C 40.83218 27.114987 40.50143 26.883289 40.136719 26.671875 C 38.927315 25.970813 37.700042 25.655443 36.525391 25.646484 z " />
  <path
     style="color:#000000;fill:#000000;stroke-linecap:round;stroke-linejoin:round;-inkscape-stroke:none;fill-opacity:1"
     d="m 29.808,36.764 a 7.7272,7.7272 0 1 1 6.7053,3.8869 l -12.037,-0.163 a 4.6363,4.6363 0 0 1 0,-9.2726 l 4.5053,-0.0135"
     id="path9" />
</svg>
